<svg xmlns="http://www.w3.org/2000/svg" viewBox="0 0 256 256" role="img" aria-labelledby="title desc">
<title id="title">Prain shield</title>
<desc id="desc">Original vector emblazonment based on the published Prain blazon.</desc>
<style>:root{--heritage-paper:#F7F4EC;--heritage-ink:#171717;--heritage-red:#B52326;--heritage-blue:#245FC7;--heritage-green:#2F6B3A;--heritage-gold:#D4B56A;--heritage-silver:#F0EEE7;--heritage-skin:#E8B78F;} .outline{stroke:#171717;stroke-linecap:round;stroke-linejoin:round}</style>
<defs><clipPath id="clip"><path d="M40 28H216V116C216 177 183 216 128 238C73 216 40 177 40 116Z"/></clipPath></defs><path d="M40 28H216V116C216 177 183 216 128 238C73 216 40 177 40 116Z" fill="#F7F4EC" stroke="#171717" stroke-width="5"/><g clip-path="url(#clip)"><rect x="40" y="28" width="176" height="58" fill="#B52326"/><g transform="translate(49 23) scale(.22)"><g id="shuttle" data-part="shuttle"><path d="M24 128C45 91 80 78 128 78s83 13 104 50c-21 37-56 50-104 50S45 165 24 128Z" fill="#F0EEE7" stroke="#171717" stroke-width="5"/><path d="M69 128c15-15 34-21 59-21s44 6 59 21c-15 15-34 21-59 21s-44-6-59-21Z" fill="none" stroke="#171717" stroke-width="4"/><path d="M88 116v24m12-28v32m12-35v38m12-40v42m12-40v38m12-35v32m12-28v24" stroke="#171717" stroke-width="2"/></g></g><g transform="translate(101 23) scale(.22)"><g id="shuttle" data-part="shuttle"><path d="M24 128C45 91 80 78 128 78s83 13 104 50c-21 37-56 50-104 50S45 165 24 128Z" fill="#F0EEE7" stroke="#171717" stroke-width="5"/><path d="M69 128c15-15 34-21 59-21s44 6 59 21c-15 15-34 21-59 21s-44-6-59-21Z" fill="none" stroke="#171717" stroke-width="4"/><path d="M88 116v24m12-28v32m12-35v38m12-40v42m12-40v38m12-35v32m12-28v24" stroke="#171717" stroke-width="2"/></g></g><g transform="translate(153 23) scale(.22)"><g id="shuttle" data-part="shuttle"><path d="M24 128C45 91 80 78 128 78s83 13 104 50c-21 37-56 50-104 50S45 165 24 128Z" fill="#F0EEE7" stroke="#171717" stroke-width="5"/><path d="M69 128c15-15 34-21 59-21s44 6 59 21c-15 15-34 21-59 21s-44-6-59-21Z" fill="none" stroke="#171717" stroke-width="4"/><path d="M88 116v24m12-28v32m12-35v38m12-40v42m12-40v38m12-35v32m12-28v24" stroke="#171717" stroke-width="2"/></g></g><g transform="translate(50 65) scale(.31)"><g id="lotus" data-part="lotus" transform="translate(128 132)"><path d="M0 24C-16 6-18-22 0-48C18-22 16 6 0 24Z" fill="#245FC7" stroke="#171717" stroke-width="3"/><path d="M-4 24C-32 12-46-9-42-35C-16-29-2-9-4 24Z" fill="#245FC7" stroke="#171717" stroke-width="3"/><path d="M4 24C32 12 46-9 42-35C16-29 2-9 4 24Z" fill="#245FC7" stroke="#171717" stroke-width="3"/><path d="M-9 26C-43 28-62 13-66-11C-36-14-15-1-9 26Z" fill="#245FC7" stroke="#171717" stroke-width="3"/><path d="M9 26C43 28 62 13 66-11C36-14 15-1 9 26Z" fill="#245FC7" stroke="#171717" stroke-width="3"/><ellipse cx="0" cy="22" rx="17" ry="8" fill="#D4B56A" stroke="#171717" stroke-width="2"/></g></g><g transform="translate(98 66) scale(.25)"><g id="rose" data-part="rose" transform="translate(128 128)"><g fill="#B52326" stroke="#171717" stroke-width="3"><ellipse rx="22" ry="40" transform="rotate(0) translate(0 -20)"/><ellipse rx="22" ry="40" transform="rotate(72) translate(0 -20)"/><ellipse rx="22" ry="40" transform="rotate(144) translate(0 -20)"/><ellipse rx="22" ry="40" transform="rotate(216) translate(0 -20)"/><ellipse rx="22" ry="40" transform="rotate(288) translate(0 -20)"/></g><g fill="#2F6B3A" stroke="#171717" stroke-width="2"><path d="M0-48L8-28L-8-28Z"/><path d="M46-15L28-7L30-23Z"/><path d="M28 39L12 25L28 20Z"/><path d="M-28 39L-28 20L-12 25Z"/><path d="M-46-15L-30-23L-28-7Z"/></g><circle r="16" fill="#D4B56A" stroke="#171717" stroke-width="3"/></g></g><g transform="translate(146 65) scale(.31)"><g id="lotus" data-part="lotus" transform="translate(128 132)"><path d="M0 24C-16 6-18-22 0-48C18-22 16 6 0 24Z" fill="#245FC7" stroke="#171717" stroke-width="3"/><path d="M-4 24C-32 12-46-9-42-35C-16-29-2-9-4 24Z" fill="#245FC7" stroke="#171717" stroke-width="3"/><path d="M4 24C32 12 46-9 42-35C16-29 2-9 4 24Z" fill="#245FC7" stroke="#171717" stroke-width="3"/><path d="M-9 26C-43 28-62 13-66-11C-36-14-15-1-9 26Z" fill="#245FC7" stroke="#171717" stroke-width="3"/><path d="M9 26C43 28 62 13 66-11C36-14 15-1 9 26Z" fill="#245FC7" stroke="#171717" stroke-width="3"/><ellipse cx="0" cy="22" rx="17" ry="8" fill="#D4B56A" stroke="#171717" stroke-width="2"/></g></g><g transform="translate(69 116) scale(.25)"><g id="rose" data-part="rose" transform="translate(128 128)"><g fill="#B52326" stroke="#171717" stroke-width="3"><ellipse rx="22" ry="40" transform="rotate(0) translate(0 -20)"/><ellipse rx="22" ry="40" transform="rotate(72) translate(0 -20)"/><ellipse rx="22" ry="40" transform="rotate(144) translate(0 -20)"/><ellipse rx="22" ry="40" transform="rotate(216) translate(0 -20)"/><ellipse rx="22" ry="40" transform="rotate(288) translate(0 -20)"/></g><g fill="#2F6B3A" stroke="#171717" stroke-width="2"><path d="M0-48L8-28L-8-28Z"/><path d="M46-15L28-7L30-23Z"/><path d="M28 39L12 25L28 20Z"/><path d="M-28 39L-28 20L-12 25Z"/><path d="M-46-15L-30-23L-28-7Z"/></g><circle r="16" fill="#D4B56A" stroke="#171717" stroke-width="3"/></g></g><g transform="translate(102 114) scale(.31)"><g id="lotus" data-part="lotus" transform="translate(128 132)"><path d="M0 24C-16 6-18-22 0-48C18-22 16 6 0 24Z" fill="#245FC7" stroke="#171717" stroke-width="3"/><path d="M-4 24C-32 12-46-9-42-35C-16-29-2-9-4 24Z" fill="#245FC7" stroke="#171717" stroke-width="3"/><path d="M4 24C32 12 46-9 42-35C16-29 2-9 4 24Z" fill="#245FC7" stroke="#171717" stroke-width="3"/><path d="M-9 26C-43 28-62 13-66-11C-36-14-15-1-9 26Z" fill="#245FC7" stroke="#171717" stroke-width="3"/><path d="M9 26C43 28 62 13 66-11C36-14 15-1 9 26Z" fill="#245FC7" stroke="#171717" stroke-width="3"/><ellipse cx="0" cy="22" rx="17" ry="8" fill="#D4B56A" stroke="#171717" stroke-width="2"/></g></g><g transform="translate(146 116) scale(.25)"><g id="rose" data-part="rose" transform="translate(128 128)"><g fill="#B52326" stroke="#171717" stroke-width="3"><ellipse rx="22" ry="40" transform="rotate(0) translate(0 -20)"/><ellipse rx="22" ry="40" transform="rotate(72) translate(0 -20)"/><ellipse rx="22" ry="40" transform="rotate(144) translate(0 -20)"/><ellipse rx="22" ry="40" transform="rotate(216) translate(0 -20)"/><ellipse rx="22" ry="40" transform="rotate(288) translate(0 -20)"/></g><g fill="#2F6B3A" stroke="#171717" stroke-width="2"><path d="M0-48L8-28L-8-28Z"/><path d="M46-15L28-7L30-23Z"/><path d="M28 39L12 25L28 20Z"/><path d="M-28 39L-28 20L-12 25Z"/><path d="M-46-15L-30-23L-28-7Z"/></g><circle r="16" fill="#D4B56A" stroke="#171717" stroke-width="3"/></g></g><g transform="translate(78 160) scale(.31)"><g id="lotus" data-part="lotus" transform="translate(128 132)"><path d="M0 24C-16 6-18-22 0-48C18-22 16 6 0 24Z" fill="#245FC7" stroke="#171717" stroke-width="3"/><path d="M-4 24C-32 12-46-9-42-35C-16-29-2-9-4 24Z" fill="#245FC7" stroke="#171717" stroke-width="3"/><path d="M4 24C32 12 46-9 42-35C16-29 2-9 4 24Z" fill="#245FC7" stroke="#171717" stroke-width="3"/><path d="M-9 26C-43 28-62 13-66-11C-36-14-15-1-9 26Z" fill="#245FC7" stroke="#171717" stroke-width="3"/><path d="M9 26C43 28 62 13 66-11C36-14 15-1 9 26Z" fill="#245FC7" stroke="#171717" stroke-width="3"/><ellipse cx="0" cy="22" rx="17" ry="8" fill="#D4B56A" stroke="#171717" stroke-width="2"/></g></g><g transform="translate(128 164) scale(.25)"><g id="rose" data-part="rose" transform="translate(128 128)"><g fill="#B52326" stroke="#171717" stroke-width="3"><ellipse rx="22" ry="40" transform="rotate(0) translate(0 -20)"/><ellipse rx="22" ry="40" transform="rotate(72) translate(0 -20)"/><ellipse rx="22" ry="40" transform="rotate(144) translate(0 -20)"/><ellipse rx="22" ry="40" transform="rotate(216) translate(0 -20)"/><ellipse rx="22" ry="40" transform="rotate(288) translate(0 -20)"/></g><g fill="#2F6B3A" stroke="#171717" stroke-width="2"><path d="M0-48L8-28L-8-28Z"/><path d="M46-15L28-7L30-23Z"/><path d="M28 39L12 25L28 20Z"/><path d="M-28 39L-28 20L-12 25Z"/><path d="M-46-15L-30-23L-28-7Z"/></g><circle r="16" fill="#D4B56A" stroke="#171717" stroke-width="3"/></g></g></g>
</svg>
